# xmcd
#
# Track frame offsets: 
#        150
#        18167
#        34855
#        38172
#        55065
#        75382
#        87925
#        94692
#        108232
#        120397
#        144362
#        151687
#        169115
#        175235
#        190320
#        200285
#        223727
#
# Disc length: 3227 seconds
#
# Revision: 2
# Processed by: cddbd v1.4PL0 Copyright (c) Steve Scherf et al.
# Submitted via: ExactAudioCopy v0.90a11
#
DISCID=ce0c9911
DTITLE=Eric Bibb - Just Like Love
DYEAR=1900
DGENRE=
TTITLE0=Wrapped Up in Her Arms
TTITLE1=My Charleston Dream
TTITLE2=Dear John
TTITLE3=Just Like Love
TTITLE4=She압 Still With Me
TTITLE5=I Wanna Be Ready
TTITLE6=Katri압 Kindness
TTITLE7=Get It While It압 Hot
TTITLE8=Home In That Rock
TTITLE9=Forever Ago
TTITLE10=Deep Sea Blues
TTITLE11=Sail Away Ladies
TTITLE12=All Your Sweatness
TTITLE13=Rock Island Rocket
TTITLE14=Marley압 Mood
TTITLE15=That압 Why I앐 Here
TTITLE16=Prayin'
EXTD=Opus 3 Records. HDCD.\n\nSACD
EXTT0=
EXTT1=
EXTT2=
EXTT3=
EXTT4=
EXTT5=
EXTT6=
EXTT7=
EXTT8=
EXTT9=
EXTT10=
EXTT11=
EXTT12=
EXTT13=
EXTT14=
EXTT15=
EXTT16=
PLAYORDER=
